<svg xmlns="http://www.w3.org/2000/svg" viewBox="0 0 500 500"><g id="freepik--background-complete--inject-2"><rect x="416.78" y="398.49" width="33.12" height="0.25" style="fill:#ebebeb"></rect><rect x="322.53" y="401.21" width="8.69" height="0.25" style="fill:#ebebeb"></rect><rect x="396.59" y="389.21" width="19.19" height="0.25" style="fill:#ebebeb"></rect><rect x="52.46" y="390.89" width="43.19" height="0.25" style="fill:#ebebeb"></rect><rect x="104.56" y="390.89" width="6.33" height="0.25" style="fill:#ebebeb"></rect><rect x="131.47" y="395.11" width="93.68" height="0.25" style="fill:#ebebeb"></rect><path d="M238.4,337.8H45.3a5.71,5.71,0,0,1-5.71-5.71V60.66A5.71,5.71,0,0,1,45.3,55H238.4a5.71,5.71,0,0,1,5.71,5.71V332.09A5.71,5.71,0,0,1,238.4,337.8ZM45.3,55.2a5.47,5.47,0,0,0-5.46,5.46V332.09a5.47,5.47,0,0,0,5.46,5.46H238.4a5.47,5.47,0,0,0,5.46-5.46V60.66a5.47,5.47,0,0,0-5.46-5.46Z" style="fill:#ebebeb"></path><path d="M454.7,337.8H261.6a5.71,5.71,0,0,1-5.71-5.71V60.66A5.71,5.71,0,0,1,261.6,55H454.7a5.71,5.71,0,0,1,5.71,5.71V332.09A5.71,5.71,0,0,1,454.7,337.8ZM261.6,55.2a5.47,5.47,0,0,0-5.46,5.46V332.09a5.47,5.47,0,0,0,5.46,5.46H454.7a5.47,5.47,0,0,0,5.46-5.46V60.66a5.47,5.47,0,0,0-5.46-5.46Z" style="fill:#ebebeb"></path><rect y="382.4" width="500" height="0.25" style="fill:#ebebeb"></rect><path d="M94.39,107.27c-1.34,0-2.42,1.4-2.42,3.14v5.46h4.84v-5.46C96.81,108.67,95.73,107.27,94.39,107.27Zm0,4.59a1,1,0,1,1,.76-1A.9.9,0,0,1,94.39,111.86Z" style="fill:#e0e0e0"></path><path d="M194,107.27c-1.34,0-2.43,1.4-2.43,3.14v5.46h4.85v-5.46C196.43,108.67,195.34,107.27,194,107.27Zm0,4.59a1,1,0,1,1,.76-1A.9.9,0,0,1,194,111.86Z" style="fill:#e0e0e0"></path><rect x="80.68" y="113.78" width="127.04" height="94.34" style="fill:#ebebeb"></rect><rect x="84.18" y="118.31" width="120.04" height="85.28" style="fill:#fafafa"></rect><rect x="78.32" y="204.92" width="131.75" height="7.17" style="fill:#f0f0f0"></rect><path d="M121.18,133.3H98.56v48.81h91.27V133.3Zm50.95,24H155.51V150h16.62Zm0,8H155.51v-7.32h16.62Zm0,8H155.51v-7.32h16.62Zm-66.84-7.32h15.35v7.32H105.29Zm0-8h15.35v7.32H105.29Zm0-8h15.35v7.32H105.29Zm0-8h15.35v7.33H105.29ZM155,157.35H138.34V150H155Zm0,8H138.34v-7.32H155Zm-33.79-7.32H137.8v7.32H121.18Zm16.62-.7H121.18V150H137.8Zm-16.62,8.72H137.8v7.32H121.18Zm17.16,0H155v7.32H138.34ZM155,149.34H121.18V142H155ZM99.1,134h21.54v7.32H99.1Zm0,8h5.65v7.33H99.1Zm0,8h5.65v7.32H99.1Zm0,8h5.65v7.32H99.1Zm0,8h5.65v7.32H99.1Zm5.65,15.34H99.1v-7.32h5.65Zm15.89,0H105.29v-7.32h15.35Zm17.16,0H121.18v-7.32H137.8Zm17.17,0H138.34v-7.32H155Zm17.16,0H155.51v-7.32h16.62Zm17.16,0H172.67v-7.32h16.62Zm0-8H172.67v-7.32h16.62Zm0-8H172.67v-7.32h16.62Zm0-8H172.67V150h16.62Zm0-8H155.51V142h33.78Zm-33.78-8H121.18V134h68.11v7.32Z" style="fill:#e0e0e0"></path><path d="M405,331.24s8.62-8.13,8.48-13.46S408.1,325,408,322.31s6-10.17,6.21-15.33-6.19,9.25-6.53,6.83,5.91-13.14,5.86-16.89-5.46,9.5-6.26,7.16,4.51-11.1,3.15-17.66-4.23,10.64-4.66,8.46,3.22-13.38.63-17.86-1.86,12.12-2.74,10.19-1.42-11.44-4.72-14.68.87,9.58-.14,10.23-5.71-8.89-7-7.08,6.67,12.05,6.75,14.5-6.41-4.09-7-1.43,9,6.83,9.51,9.37-8-2-7.95.62,8.08,4,8.56,7-7.88-2.15-7.42,1.34,6.08,2.8,6.72,6.24-5.8-.48-5.56,2.79,6.68,3.63,7.36,6.12-6.15-1.16-6,1.49S403.66,326.69,405,331.24Z" style="fill:#e0e0e0"></path><path d="M404.29,342.79a101.42,101.42,0,0,0,1.81-18.24,109.83,109.83,0,0,0-5.78-39.28c-.32-.92-1.81-.59-1.49.34a109.24,109.24,0,0,1,5.75,38.89,100.6,100.6,0,0,1-1.75,17.83c-.19,1,1.26,1.42,1.46.46Z" style="fill:#f0f0f0"></path><path d="M394.84,337.76s4.69-10.88,2.44-15.72-2.1,8.72-3.25,6.35,1.42-11.71-.39-16.54-2,10.95-3.28,8.86.2-14.4-1.33-17.83-1.24,10.89-2.9,9.05-.27-12-4.11-17.45.33,11.44-.93,9.61-2.36-13.55-6.51-16.64,3.1,11.86,1.53,10.44S370.27,288,366,286.29s4.6,8.44,3.93,9.44-8.77-5.9-9.22-3.73,10.91,8.42,11.95,10.64-7.5-1.22-7,1.45,11,2.69,12.46,4.83-8.14,1.33-7.06,3.72,9,.49,10.63,3-8.09,1.16-6.28,4.18,6.69.16,8.65,3.06-5.52,1.86-4,4.77,7.57.68,9.18,2.7-6.11,1.37-4.88,3.72S391.81,334.12,394.84,337.76Z" style="fill:#f5f5f5"></path><path d="M398.77,348.64a102.71,102.71,0,0,0-5.57-17.45,110.34,110.34,0,0,0-20.89-33.77c-.66-.72-1.91.18-1.24.9a108.89,108.89,0,0,1,20.7,33.42,99.72,99.72,0,0,1,5.48,17.06c.2,1,1.72.81,1.52-.16Z" style="fill:#e6e6e6"></path><path d="M414.25,337.11s-6-11.46-4.07-19.23,3.31,10.32,4.2,6-2.8-12.74.64-19,.25,11.72,2.54,7.78-.38-14,2.81-17.84,1,8.28,2.55,6.37,1.14-10.83,3.56-12.87.26,8.54,1.53,6.5,4.2-11.34,8.28-12.48-2.67,5.73,0,5.09,8.79-2,9.3.77-12.87,5.86-14.39,9.3,6.11-2.68,7.51-.13S427,303.48,426,307.31s10.83-3.19,10.58.76-13.63,4.71-14.27,8.15,11-3.82,10.57-.38-12,6.12-12.74,9.81,8.54-3.44,8.79-.51S414.25,337.11,414.25,337.11Z" style="fill:#ebebeb"></path><path d="M414,346.54a109.52,109.52,0,0,1,1.86-15.84c1.84-10.1,4.77-20.42,10.41-29.1a31.58,31.58,0,0,1,12.83-11.72c.89-.42.11-1.74-.77-1.32-9.64,4.53-15.43,14.18-19.09,23.79a111.63,111.63,0,0,0-6.29,28c-.22,2.06-.41,4.14-.48,6.22,0,1,1.49,1,1.53,0Z" style="fill:#f5f5f5"></path><path d="M419.75,340.44H388.16S393,365.7,393,374.24a72.42,72.42,0,0,1-1.25,8.15h24.46a72.42,72.42,0,0,1-1.25-8.15C414.89,365.7,419.75,340.44,419.75,340.44Z" style="fill:#ebebeb"></path><path d="M109,328H81.59a8.93,8.93,0,0,1-8.93-8.93V279a1.63,1.63,0,0,1,1.63-1.63h0A1.63,1.63,0,0,1,75.92,279V319.1a5.67,5.67,0,0,0,5.67,5.67H109Z" style="fill:#e0e0e0"></path><path d="M116.88,366.49V329.12l2.19-.69a5.92,5.92,0,0,0,4.15-5.65h-20.7a5.93,5.93,0,0,0,4.14,5.65l2.2.69v37.37l-17.22,7.73v3.27l21.23-7.42,21.23,7.42v-3.27Z" style="fill:#ebebeb"></path><path d="M139.94,324.77H85.8a5.88,5.88,0,0,1-5.88-5.88h0A5.87,5.87,0,0,1,85.8,313h54.14a5.87,5.87,0,0,1,5.87,5.87h0A5.87,5.87,0,0,1,139.94,324.77Z" style="fill:#f0f0f0"></path><path d="M76.25,293.1l-2.93-41.78a5.89,5.89,0,0,1,5.45-6.27h0A5.88,5.88,0,0,1,85,250.5L88,292.28a5.87,5.87,0,0,1-5.45,6.27h0A5.86,5.86,0,0,1,76.25,293.1Z" style="fill:#f0f0f0"></path><path d="M95.36,379.78a3.72,3.72,0,1,1-3.72-3.72A3.72,3.72,0,0,1,95.36,379.78Z" style="fill:#e0e0e0"></path><path d="M137.81,379.78a3.72,3.72,0,1,1-3.71-3.72A3.71,3.71,0,0,1,137.81,379.78Z" style="fill:#e0e0e0"></path><rect x="408.12" y="115.03" width="1.64" height="127.59" transform="translate(817.88 357.65) rotate(180)" style="fill:#e0e0e0"></rect><rect x="306.27" y="115.03" width="1.64" height="127.59" transform="translate(614.18 357.65) rotate(180)" style="fill:#e0e0e0"></rect><polygon points="299.86 123.05 416.17 123.05 418.62 117.33 297.41 117.33 299.86 123.05" style="fill:#f0f0f0"></polygon><polygon points="299.86 130.91 416.17 130.91 418.62 125.19 297.41 125.19 299.86 130.91" style="fill:#f0f0f0"></polygon><polygon points="299.86 138.78 416.17 138.78 418.62 133.05 297.41 133.05 299.86 138.78" style="fill:#f0f0f0"></polygon><polygon points="299.86 146.64 416.17 146.64 418.62 140.91 297.41 140.91 299.86 146.64" style="fill:#f0f0f0"></polygon><polygon points="299.86 154.5 416.17 154.5 418.62 148.77 297.41 148.77 299.86 154.5" style="fill:#f0f0f0"></polygon><polygon points="299.86 162.36 416.17 162.36 418.62 156.64 297.41 156.64 299.86 162.36" style="fill:#f0f0f0"></polygon><polygon points="299.86 170.22 416.17 170.22 418.62 164.5 297.41 164.5 299.86 170.22" style="fill:#f0f0f0"></polygon><polygon points="299.86 178.09 416.17 178.09 418.62 172.36 297.41 172.36 299.86 178.09" style="fill:#f0f0f0"></polygon><polygon points="299.86 185.95 416.17 185.95 418.62 180.22 297.41 180.22 299.86 185.95" style="fill:#f0f0f0"></polygon><polygon points="299.86 193.81 416.17 193.81 418.62 188.08 297.41 188.08 299.86 193.81" style="fill:#f0f0f0"></polygon><polygon points="299.86 201.67 416.17 201.67 418.62 195.95 297.41 195.95 299.86 201.67" style="fill:#f0f0f0"></polygon><polygon points="299.86 209.53 416.17 209.53 418.62 203.81 297.41 203.81 299.86 209.53" style="fill:#f0f0f0"></polygon><polygon points="299.86 217.4 416.17 217.4 418.62 211.67 297.41 211.67 299.86 217.4" style="fill:#f0f0f0"></polygon><polygon points="299.86 225.26 416.17 225.26 418.62 219.53 297.41 219.53 299.86 225.26" style="fill:#f0f0f0"></polygon><polygon points="299.86 233.12 416.17 233.12 418.62 227.39 297.41 227.39 299.86 233.12" style="fill:#f0f0f0"></polygon><polygon points="299.86 240.98 416.17 240.98 418.62 235.26 297.41 235.26 299.86 240.98" style="fill:#f0f0f0"></polygon><rect x="297.41" y="240.98" width="121.21" height="3.27" style="fill:#e0e0e0"></rect><rect x="293.18" y="110.15" width="129.66" height="7.64" transform="translate(716.03 227.95) rotate(180)" style="fill:#e0e0e0"></rect><path d="M421.51,187h0a1.32,1.32,0,0,0,1.32-1.32V141.16a1.33,1.33,0,0,0-1.32-1.32h0a1.32,1.32,0,0,0-1.31,1.32V185.7A1.32,1.32,0,0,0,421.51,187Z" style="fill:#e0e0e0"></path><rect x="421.04" y="116.26" width="0.95" height="26.45" transform="translate(843.03 258.97) rotate(180)" style="fill:#e0e0e0"></rect></g><g id="freepik--Shadow--inject-2"><ellipse id="freepik--path--inject-2" cx="250" cy="412.39" rx="193.89" ry="11.32" style="fill:#f5f5f5"></ellipse></g><g id="freepik--Device--inject-2"><path d="M190.48,128.1H174.56a14.76,14.76,0,0,0-14.94,16.37l17.77,203.07a18.22,18.22,0,0,0,17.8,16.37h15.92Z" style="fill:#263238"></path><path d="M199.54,363.91H339.05A14.75,14.75,0,0,0,354,347.54L336.22,144.47a18.22,18.22,0,0,0-17.8-16.37H178.9A14.76,14.76,0,0,0,164,144.47l17.76,203.07A18.23,18.23,0,0,0,199.54,363.91Z" style="fill:#263238"></path><path d="M199.54,363.91H339.05A14.75,14.75,0,0,0,354,347.54L336.22,144.47a18.22,18.22,0,0,0-17.8-16.37H178.9A14.76,14.76,0,0,0,164,144.47l17.76,203.07A18.23,18.23,0,0,0,199.54,363.91Z" style="fill:#fff;opacity:0.6000000000000001"></path><polygon points="348.27 347.54 330.51 144.47 169.68 144.47 187.44 347.54 348.27 347.54" style="fill:#fff"></polygon><path d="M269,360.4a5.74,5.74,0,0,1-5.6-5.15,4.65,4.65,0,0,1,4.7-5.16,5.75,5.75,0,0,1,5.61,5.16A4.65,4.65,0,0,1,269,360.4Zm-.79-9a3.51,3.51,0,0,0-3.54,3.89,4.33,4.33,0,0,0,4.22,3.88,3.51,3.51,0,0,0,3.55-3.88A4.35,4.35,0,0,0,268.19,351.36Z" style="fill:#407BFF"></path><polygon points="323.54 164.21 311.69 164.21 310.66 152.37 322.5 152.37 323.54 164.21" style="fill:#263238"></polygon><polygon points="214.38 164.21 180.53 164.21 179.5 152.37 213.35 152.37 214.38 164.21" style="fill:#263238"></polygon><polygon points="331.31 253.06 188.31 253.06 181.79 178.6 324.8 178.6 331.31 253.06" style="fill:#263238"></polygon><polygon points="278.37 334.68 195.45 334.68 189.2 263.21 272.12 263.21 278.37 334.68" style="fill:#263238"></polygon><polygon points="301.05 279.5 282.01 279.5 280.58 263.21 299.62 263.21 301.05 279.5" style="fill:#263238"></polygon><path d="M327.6,268.71H306.77a3.06,3.06,0,0,1-3-2.75h0a2.48,2.48,0,0,1,2.51-2.75h20.83a3.07,3.07,0,0,1,3,2.75h0A2.48,2.48,0,0,1,327.6,268.71Z" style="fill:#263238"></path><path d="M330.88,279.5H307.71a3.06,3.06,0,0,1-3-2.75h0a2.48,2.48,0,0,1,2.51-2.75h23.16a3.07,3.07,0,0,1,3,2.75h0A2.49,2.49,0,0,1,330.88,279.5Z" style="fill:#263238"></path><path d="M329.49,290.29H285.7a3.06,3.06,0,0,1-3-2.75h0a2.48,2.48,0,0,1,2.51-2.75H329a3.06,3.06,0,0,1,3,2.75h0A2.48,2.48,0,0,1,329.49,290.29Z" style="fill:#263238"></path><path d="M332.76,301.08H286.65a3.06,3.06,0,0,1-3-2.75h0a2.48,2.48,0,0,1,2.51-2.75h46.11a3.06,3.06,0,0,1,3,2.75h0A2.48,2.48,0,0,1,332.76,301.08Z" style="fill:#263238"></path><path d="M327.78,311.87H287.59a3.06,3.06,0,0,1-3-2.75h0a2.48,2.48,0,0,1,2.51-2.75H327.3a3.06,3.06,0,0,1,3,2.75h0A2.48,2.48,0,0,1,327.78,311.87Z" style="fill:#263238"></path><path d="M334.65,322.66H288.53a3.07,3.07,0,0,1-3-2.75h0a2.48,2.48,0,0,1,2.51-2.75h46.12a3.06,3.06,0,0,1,3,2.75h0A2.48,2.48,0,0,1,334.65,322.66Z" style="fill:#263238"></path><path d="M321.26,333.45H289.48a3.06,3.06,0,0,1-3-2.75h0A2.48,2.48,0,0,1,289,328h31.78a3.06,3.06,0,0,1,3,2.75h0A2.48,2.48,0,0,1,321.26,333.45Z" style="fill:#263238"></path><polygon points="323.54 164.21 311.69 164.21 310.66 152.37 322.5 152.37 323.54 164.21" style="fill:#fff;opacity:0.9"></polygon><polygon points="214.38 164.21 180.53 164.21 179.5 152.37 213.35 152.37 214.38 164.21" style="fill:#fff;opacity:0.9"></polygon><polygon points="331.31 253.06 188.31 253.06 181.79 178.6 324.8 178.6 331.31 253.06" style="fill:#fff;opacity:0.9"></polygon><polygon points="278.37 334.68 195.45 334.68 189.2 263.21 272.12 263.21 278.37 334.68" style="fill:#fff;opacity:0.9"></polygon><polygon points="301.05 279.5 282.01 279.5 280.58 263.21 299.62 263.21 301.05 279.5" style="fill:#fff;opacity:0.9"></polygon><path d="M327.6,268.71H306.77a3.06,3.06,0,0,1-3-2.75h0a2.48,2.48,0,0,1,2.51-2.75h20.83a3.07,3.07,0,0,1,3,2.75h0A2.48,2.48,0,0,1,327.6,268.71Z" style="fill:#fff;opacity:0.9"></path><path d="M330.88,279.5H307.71a3.06,3.06,0,0,1-3-2.75h0a2.48,2.48,0,0,1,2.51-2.75h23.16a3.07,3.07,0,0,1,3,2.75h0A2.49,2.49,0,0,1,330.88,279.5Z" style="fill:#fff;opacity:0.9"></path><path d="M329.49,290.29H285.7a3.06,3.06,0,0,1-3-2.75h0a2.48,2.48,0,0,1,2.51-2.75H329a3.06,3.06,0,0,1,3,2.75h0A2.48,2.48,0,0,1,329.49,290.29Z" style="fill:#fff;opacity:0.9"></path><path d="M332.76,301.08H286.65a3.06,3.06,0,0,1-3-2.75h0a2.48,2.48,0,0,1,2.51-2.75h46.11a3.06,3.06,0,0,1,3,2.75h0A2.48,2.48,0,0,1,332.76,301.08Z" style="fill:#fff;opacity:0.9"></path><path d="M327.78,311.87H287.59a3.06,3.06,0,0,1-3-2.75h0a2.48,2.48,0,0,1,2.51-2.75H327.3a3.06,3.06,0,0,1,3,2.75h0A2.48,2.48,0,0,1,327.78,311.87Z" style="fill:#fff;opacity:0.9"></path><path d="M334.65,322.66H288.53a3.07,3.07,0,0,1-3-2.75h0a2.48,2.48,0,0,1,2.51-2.75h46.12a3.06,3.06,0,0,1,3,2.75h0A2.48,2.48,0,0,1,334.65,322.66Z" style="fill:#fff;opacity:0.9"></path><path d="M321.26,333.45H289.48a3.06,3.06,0,0,1-3-2.75h0A2.48,2.48,0,0,1,289,328h31.78a3.06,3.06,0,0,1,3,2.75h0A2.48,2.48,0,0,1,321.26,333.45Z" style="fill:#fff;opacity:0.9"></path></g><g id="freepik--character-2--inject-2"><path d="M389.53,191.62c.29-.3.58-.61.86-.93-1.56-1.82-1.74-4.67-1-9.44,1.65-11.05-19.64-26.43-24.52-11.58-.7,2.12-16.94,4.73-8.95,18-.43-2.5-.67-6.5,1.59-8.43a12.76,12.76,0,0,0,.24,11.17c4.28,8.05,9.1,5.79,9.85,9.55a25.65,25.65,0,0,0,14.69-2.85,4.31,4.31,0,0,1,.32-3.86,5,5,0,0,0,1,3.12,29.17,29.17,0,0,0,4.79-3.64,8.49,8.49,0,0,1-2.24-6.9C386.64,189.6,388.28,191.05,389.53,191.62Z" style="fill:#263238"></path><polygon points="365.2 407.86 358.02 407.86 358.38 391.22 365.57 391.22 365.2 407.86" style="fill:#b55b52"></polygon><polygon points="358.38 391.23 358.19 399.8 365.38 399.8 365.57 391.23 358.38 391.23" style="opacity:0.2"></polygon><path d="M361.91,247.44s-2.82,58.08-3.46,77.42c-.62,18.34-1.62,73.28-1.62,73.28h9.71s7.78-54.62,9.81-72.84c2.22-19.86,7-79.41,7-79.41Z" style="fill:#407BFF"></path><path d="M383.38,245.89l-4.49.32a34,34,0,0,0-2.23,4.61c-8,19.86-5.17,48.46-.11,72.72C378.84,302.16,383.38,245.89,383.38,245.89Z" style="opacity:0.2"></path><path d="M357.7,403.78l8,1.07a.59.59,0,0,1,.51.56l.06,6.46A1.15,1.15,0,0,1,365,413c-2.78-.42-4.1-.76-7.62-1.23-2.17-.29-8.41-.9-11.4-1.3s-2.76-3.37-1.48-3.47c5.74-.46,9.9-1.59,12-2.92A1.93,1.93,0,0,1,357.7,403.78Z" style="fill:#263238"></path><path d="M354.86,404.67a2.68,2.68,0,0,1-1.67-.67.94.94,0,0,1-.19-.86.53.53,0,0,1,.34-.41c.94-.36,3.59,1.47,3.88,1.68a.16.16,0,0,1,.07.18.18.18,0,0,1-.15.13A11.84,11.84,0,0,1,354.86,404.67ZM353.79,403a.65.65,0,0,0-.32,0,.21.21,0,0,0-.14.17.61.61,0,0,0,.12.56c.38.45,1.54.67,3.16.62A9.33,9.33,0,0,0,353.79,403Z" style="fill:#407BFF"></path><path d="M357.1,404.72l-.06,0c-.8-.49-2.28-2.26-2-3,.06-.19.23-.41.7-.4a1.31,1.31,0,0,1,.9.42,4.88,4.88,0,0,1,.7,2.89.19.19,0,0,1-.09.14Zm-1.31-3.12h-.1c-.31,0-.35.12-.36.15-.14.48.83,1.84,1.63,2.48a4,4,0,0,0-.61-2.32A.91.91,0,0,0,355.79,401.6Z" style="fill:#407BFF"></path><polygon points="406.58 407.01 399.4 407.01 396.26 390.37 403.45 390.37 406.58 407.01" style="fill:#b55b52"></polygon><polygon points="396.26 390.38 397.88 398.95 405.07 398.95 403.45 390.38 396.26 390.38" style="opacity:0.2"></polygon><path d="M369.53,246.59s6.85,58.08,10.28,77.42c3.24,18.34,16.35,73.28,16.35,73.28h9.72s-6.27-54.62-8.07-72.84c-1-10.31-1.12-29.86-1.18-40.74,0-4.66.53-13.8-1.76-21.09-2.55-8.12-5-17.58-5-17.58Z" style="fill:#407BFF"></path><path d="M396,396.7h9.79c-.08-.73-.24-2.12-.46-4l-10.2.35Z" style="opacity:0.2"></path><path d="M354.65,205.29s-3.33,1.45,6.57,43l29.1-2.12c-1.35-11.81-1.9-19.11,2-43.83a86.77,86.77,0,0,0-12.48-.73,92.07,92.07,0,0,0-13.21,1C361,203.51,354.65,205.29,354.65,205.29Z" style="fill:#407BFF"></path><path d="M354.65,205.29s-3.33,1.45,6.57,43l29.1-2.12c-1.35-11.81-1.9-19.11,2-43.83a86.77,86.77,0,0,0-12.48-.73,92.07,92.07,0,0,0-13.21,1C361,203.51,354.65,205.29,354.65,205.29Z" style="fill:#fff;opacity:0.5"></path><path d="M377.45,186.83c-.52,4.31-.79,12.16,2.39,14.78,0,0-.85,4.4-8.75,5-8.68.63-4.46-4-4.46-4,4.66-1.48,4.28-5,3.21-8.23Z" style="fill:#b55b52"></path><path d="M374.35,189.9l-4.5,4.44a14,14,0,0,1,.57,2.32c1.8-.4,4.14-2.56,4.19-4.47A6.47,6.47,0,0,0,374.35,189.9Z" style="opacity:0.2"></path><path d="M382.31,179.65c-1.63,6.95-2.17,9.92-6.33,12.91-6.25,4.51-14.42,1-14.9-6.3-.43-6.56,2.31-16.81,9.65-18.43A9.73,9.73,0,0,1,382.31,179.65Z" style="fill:#b55b52"></path><path d="M365.6,169.08c-2.33,3.25,20.4,15.35,18.22,7.7S371.7,160.6,365.6,169.08Z" style="fill:#263238"></path><path d="M377.17,176.89c-.55,3.38,3.91,7.38,3.91,7.38s5.73-4.22,2.13-6.47S377.17,176.89,377.17,176.89Z" style="fill:#263238"></path><path d="M370.35,179.61c-.1.57-.48,1-.86.92s-.59-.58-.5-1.15.48-1,.86-.92S370.44,179,370.35,179.61Z" style="fill:#263238"></path><path d="M363.89,178.5c-.1.58-.48,1-.85.92s-.6-.58-.5-1.15.48-1,.85-.92S364,177.93,363.89,178.5Z" style="fill:#263238"></path><path d="M363.55,177.41l-1.31-.63S362.77,178,363.55,177.41Z" style="fill:#263238"></path><path d="M366.16,179.87a15.2,15.2,0,0,1-2.65,3.3,2.5,2.5,0,0,0,2,.73Z" style="fill:#a02724"></path><path d="M368.21,186.67a6.57,6.57,0,0,1-.85-.08.17.17,0,0,1-.14-.2.18.18,0,0,1,.19-.14,4.58,4.58,0,0,0,4-1.14.18.18,0,0,1,.24,0,.18.18,0,0,1,0,.25A4.83,4.83,0,0,1,368.21,186.67Z" style="fill:#263238"></path><path d="M383.11,186.41a5.22,5.22,0,0,1-3.16,2.41c-1.77.45-2.62-1.14-2.09-2.79.47-1.48,2-3.51,3.72-3.23A2.33,2.33,0,0,1,383.11,186.41Z" style="fill:#b55b52"></path><path d="M373.16,178.73a.34.34,0,0,1-.32-.24,4,4,0,0,0-2.4-2.15.34.34,0,1,1,.21-.65,4.63,4.63,0,0,1,2.84,2.6.34.34,0,0,1-.22.43Z" style="fill:#263238"></path><path d="M362.46,175.19a.32.32,0,0,1-.29-.17.34.34,0,0,1,.12-.47,3.39,3.39,0,0,1,3.1-.2.34.34,0,0,1,.15.46.35.35,0,0,1-.46.15h0a2.65,2.65,0,0,0-2.45.19A.33.33,0,0,1,362.46,175.19Z" style="fill:#263238"></path><path d="M398.92,405.27H407a.56.56,0,0,1,.57.49l.92,6.38a1.15,1.15,0,0,1-1.15,1.28c-2.81-.05-4.17-.21-7.72-.21-2.18,0-8.45.22-11.47.22s-3.17-3-1.92-3.25c5.63-1.21,9.6-2.88,11.5-4.47A1.85,1.85,0,0,1,398.92,405.27Z" style="fill:#263238"></path><path d="M396.22,406.52a2.71,2.71,0,0,1-1.74-.44,1,1,0,0,1-.31-.83.55.55,0,0,1,.29-.45c.88-.48,3.75,1,4.07,1.15a.17.17,0,0,1,.09.17.17.17,0,0,1-.14.14A11.52,11.52,0,0,1,396.22,406.52ZM394.94,405a.61.61,0,0,0-.32.07.19.19,0,0,0-.11.18.63.63,0,0,0,.2.55c.43.39,1.62.46,3.21.19A9.4,9.4,0,0,0,394.94,405Z" style="fill:#407BFF"></path><path d="M398.45,406.27l-.07,0c-.86-.38-2.55-1.93-2.42-2.75,0-.19.17-.43.64-.48a1.21,1.21,0,0,1,.94.3c.91.75,1.07,2.68,1.08,2.76a.17.17,0,0,1-.07.16A.17.17,0,0,1,398.45,406.27Zm-1.71-2.92h-.1c-.31,0-.33.16-.34.2-.08.49,1.07,1.7,1.94,2.23a3.91,3.91,0,0,0-.91-2.21A.91.91,0,0,0,396.74,403.35Z" style="fill:#407BFF"></path><path d="M370,178.52l-1.31-.63S369.22,179.08,370,178.52Z" style="fill:#263238"></path><path d="M357.71,214.89c-.47,1.8-1,3.73-1.38,5.61s-.84,3.76-1.12,5.61a25.12,25.12,0,0,0-.38,5.12,5.51,5.51,0,0,0,.1.82c0,.18.07.18-.16,0s-.22-.1,0,0a7.85,7.85,0,0,0,1,.28,32.71,32.71,0,0,0,5.43.59c1.92.1,3.89.09,5.86.11s4-.05,6-.12,4-.12,6-.18l.5,3.68a120.17,120.17,0,0,1-12.09,2.07c-2,.26-4.1.43-6.2.54a37.31,37.31,0,0,1-6.61-.2,13.19,13.19,0,0,1-2-.45,6.46,6.46,0,0,1-2.61-1.48,6.54,6.54,0,0,1-1.63-2.64,11.72,11.72,0,0,1-.52-2.13,22.71,22.71,0,0,1-.17-3.61c0-1.14.11-2.23.24-3.31a71.77,71.77,0,0,1,2.59-12.36Z" style="fill:#b55b52"></path><path d="M355.23,204.91c-3,.45-6.31,12.36-6.31,12.36l7.56,6.34s9-11.44,7.09-14.9C361.55,205.09,359.64,204.25,355.23,204.91Z" style="fill:#407BFF"></path><path d="M355.23,204.91c-3,.45-6.31,12.36-6.31,12.36l7.56,6.34s9-11.44,7.09-14.9C361.55,205.09,359.64,204.25,355.23,204.91Z" style="fill:#fff;opacity:0.5"></path><path d="M365.6,203.11a8.34,8.34,0,0,0,3.1-3.63,1.46,1.46,0,0,1,1.59-.95,11.87,11.87,0,0,0,6.61-1,1.45,1.45,0,0,1,2,.83,5.21,5.21,0,0,0,2.61,3.21s-2.47,6.8-12,6.39S365.6,203.11,365.6,203.11Z" style="fill:#407BFF"></path><path d="M365.6,203.11a8.34,8.34,0,0,0,3.1-3.63,1.46,1.46,0,0,1,1.59-.95,11.87,11.87,0,0,0,6.61-1,1.45,1.45,0,0,1,2,.83,5.21,5.21,0,0,0,2.61,3.21s-2.47,6.8-12,6.39S365.6,203.11,365.6,203.11Z" style="fill:#fff;opacity:0.5"></path><path d="M355.85,223.08c-.79-4.47-1.25-7.83-1.5-10.34l-.35,8.79Z" style="opacity:0.2"></path><path d="M370.44,250.4a.91.91,0,1,1-.91-.91A.92.92,0,0,1,370.44,250.4Z" style="fill:#407BFF"></path><path d="M371.66,259.46a.92.92,0,1,1-.92-.91A.92.92,0,0,1,371.66,259.46Z" style="fill:#407BFF"></path><g style="opacity:0.5"><path d="M370.44,250.4a.91.91,0,1,1-.91-.91A.92.92,0,0,1,370.44,250.4Z" style="fill:#fff"></path><path d="M371.66,259.46a.92.92,0,1,1-.92-.91A.92.92,0,0,1,371.66,259.46Z" style="fill:#fff"></path></g><path d="M356.86,396.45h9.92c.11-.75.25-1.72.41-2.89H356.91C356.89,394.73,356.87,395.7,356.86,396.45Z" style="opacity:0.2"></path><polygon points="367.35 398.49 355.95 398.49 355.5 394.85 368.31 394.41 367.35 398.49" style="fill:#407BFF"></polygon><path d="M359,195.41l-1.13.4a.27.27,0,0,1-.32-.41l.67-1,9.8-7.6a.56.56,0,0,1,.79,0l.14.19a.55.55,0,0,1-.15.77Z" style="fill:#407BFF"></path><path d="M359,195.41l-1.13.4a.27.27,0,0,1-.32-.41l.67-1,9.8-7.6a.56.56,0,0,1,.79,0l.14.19a.55.55,0,0,1-.15.77Z" style="fill:#fff;opacity:0.7000000000000001"></path><path d="M371,202.46l-4.3-7.64-2.86,6.72s2.85,3.63,5.79,3.11Z" style="fill:#b55b52"></path><polygon points="362.19 191.98 360.18 197.08 363.86 201.54 366.72 194.81 362.19 191.98" style="fill:#b55b52"></polygon><rect x="383.74" y="229.23" width="11.17" height="13.76" rx="1.01" transform="translate(89.13 -106.24) rotate(17.52)" style="fill:#407BFF"></rect><rect x="383.54" y="228.61" width="11.17" height="13.76" rx="1.01" transform="translate(88.94 -106.22) rotate(17.52)" style="fill:#407BFF"></rect><rect x="383.54" y="228.61" width="11.17" height="13.76" rx="1.01" transform="translate(88.94 -106.22) rotate(17.52)" style="fill:#fff;opacity:0.8"></rect><rect x="383.36" y="227.88" width="11.17" height="13.76" rx="1.01" transform="translate(88.71 -106.19) rotate(17.52)" style="fill:#263238"></rect><rect x="386.21" y="230.54" width="6.82" height="3.11" transform="translate(87.94 -106.52) rotate(17.52)" style="fill:#fff"></rect><path d="M384.91,229a.8.8,0,1,1,1.19-.43l-.22-.07c.08-.27-.18-.61-.58-.73s-.81,0-.89.26.17.61.57.73Z" style="fill:#263238"></path><g style="opacity:0.6000000000000001"><path d="M384.91,229a.8.8,0,1,1,1.19-.43l-.22-.07c.08-.27-.18-.61-.58-.73s-.81,0-.89.26.17.61.57.73Z" style="fill:#fff"></path></g><path d="M384.47,230.38a.8.8,0,1,1,1.19-.43l-.22-.07c.08-.27-.18-.61-.58-.73s-.81,0-.89.26.18.61.57.73Z" style="fill:#263238"></path><g style="opacity:0.6000000000000001"><path d="M384.47,230.38a.8.8,0,1,1,1.19-.43l-.22-.07c.08-.27-.18-.61-.58-.73s-.81,0-.89.26.18.61.57.73Z" style="fill:#fff"></path></g><path d="M384,231.77a.8.8,0,1,1,1.19-.43l-.22-.07c.08-.27-.18-.61-.58-.73s-.81,0-.89.26.18.61.57.74Z" style="fill:#263238"></path><g style="opacity:0.6000000000000001"><path d="M384,231.77a.8.8,0,1,1,1.19-.43l-.22-.07c.08-.27-.18-.61-.58-.73s-.81,0-.89.26.18.61.57.74Z" style="fill:#fff"></path></g><path d="M383.59,233.16a.8.8,0,1,1,1.19-.43l-.22-.07c.08-.27-.18-.6-.58-.73s-.81,0-.89.27.18.6.58.73Z" style="fill:#263238"></path><g style="opacity:0.6000000000000001"><path d="M383.59,233.16a.8.8,0,1,1,1.19-.43l-.22-.07c.08-.27-.18-.6-.58-.73s-.81,0-.89.27.18.6.58.73Z" style="fill:#fff"></path></g><path d="M383.15,234.55a.79.79,0,1,1,.46-1.46c.54.17.86.62.73,1l-.22-.07c.08-.27-.18-.6-.58-.73s-.81,0-.89.27.18.6.58.73Z" style="fill:#263238"></path><g style="opacity:0.6000000000000001"><path d="M383.15,234.55a.79.79,0,1,1,.46-1.46c.54.17.86.62.73,1l-.22-.07c.08-.27-.18-.6-.58-.73s-.81,0-.89.27.18.6.58.73Z" style="fill:#fff"></path></g><path d="M382.71,235.94a.8.8,0,1,1,.47-1.46c.53.17.86.62.73,1l-.23-.07c.08-.27-.18-.6-.58-.73s-.81,0-.89.27.18.6.58.73Z" style="fill:#263238"></path><g style="opacity:0.6000000000000001"><path d="M382.71,235.94a.8.8,0,1,1,.47-1.46c.53.17.86.62.73,1l-.23-.07c.08-.27-.18-.6-.58-.73s-.81,0-.89.27.18.6.58.73Z" style="fill:#fff"></path></g><path d="M382.27,237.33a.8.8,0,1,1,.47-1.46c.54.17.86.62.73,1l-.23-.07c.09-.27-.18-.6-.58-.73s-.8,0-.89.27.18.6.58.73Z" style="fill:#263238"></path><g style="opacity:0.6000000000000001"><path d="M382.27,237.33a.8.8,0,1,1,.47-1.46c.54.17.86.62.73,1l-.23-.07c.09-.27-.18-.6-.58-.73s-.8,0-.89.27.18.6.58.73Z" style="fill:#fff"></path></g><path d="M381.84,238.72a.79.79,0,1,1,.46-1.46c.54.17.86.62.73,1l-.23-.08c.09-.27-.18-.6-.58-.73s-.8,0-.89.27.18.6.58.73Z" style="fill:#263238"></path><g style="opacity:0.6000000000000001"><path d="M381.84,238.72a.79.79,0,1,1,.46-1.46c.54.17.86.62.73,1l-.23-.08c.09-.27-.18-.6-.58-.73s-.8,0-.89.27.18.6.58.73Z" style="fill:#fff"></path></g><path d="M371.91,234l6.79-3.74-1.42,7.16s-4.4,1.39-6.54-.69Z" style="fill:#b55b52"></path><polygon points="384.67 231.17 383.15 237.1 377.28 237.37 378.7 230.21 384.67 231.17" style="fill:#b55b52"></polygon><path d="M383,223l-8.31,5.58,0,3s6.62,2.46,14.89-7.47c.18-2.52.46-5.32.84-8.48Z" style="opacity:0.2"></path><path d="M395.14,212.4a81.54,81.54,0,0,1-7.87,11.65A35.51,35.51,0,0,1,382,229.4a13.47,13.47,0,0,1-4,2.28,7.34,7.34,0,0,1-3.19.38,6.57,6.57,0,0,1-3.16-1.31,10,10,0,0,1-3-4,21.6,21.6,0,0,1-1.21-3.77,42.87,42.87,0,0,1-.93-7.15,81,81,0,0,1,.5-13.85l3.71.17c.13,2.17.28,4.41.51,6.59s.46,4.37.82,6.5a45.07,45.07,0,0,0,1.39,6.13,15.06,15.06,0,0,0,1.05,2.58,3.65,3.65,0,0,0,1.07,1.35c.09.06.13,0-.08,0s-.07,0,.12-.12a7.82,7.82,0,0,0,1.76-1.25,34,34,0,0,0,4-4.47c1.29-1.67,2.51-3.45,3.69-5.26s2.36-3.69,3.44-5.48Z" style="fill:#b55b52"></path><path d="M399.59,205.72c.8,2.95-6.73,13-6.73,13l-10.33-6.17s3.23-8.81,7.08-9.78C393.63,201.74,398.68,202.36,399.59,205.72Z" style="fill:#407BFF"></path><path d="M399.59,205.72c.8,2.95-6.73,13-6.73,13l-10.33-6.17s3.23-8.81,7.08-9.78C393.63,201.74,398.68,202.36,399.59,205.72Z" style="fill:#fff;opacity:0.5"></path><path d="M366.16,169.28s-4.22,4,3.51,6.17C369.67,175.45,365.41,172.05,366.16,169.28Z" style="fill:#263238"></path><path d="M380.93,175.51a.94.94,0,0,0-1.35-1.3l-3,2.45a1,1,0,0,0-.06,1.42l.68.64a.94.94,0,0,0,1.41-.12Zm-3.7,2.94-.43-.41a.71.71,0,0,1,.14-1l2.29-2a.61.61,0,1,1,.88.84l-1.86,2.38A.71.71,0,0,1,377.23,178.45Z" style="fill:#407BFF"></path><polygon points="406.76 397.64 395.36 397.64 394.14 394 406.86 393.56 406.76 397.64" style="fill:#407BFF"></polygon></g><g id="freepik--character-1--inject-2"><path d="M162.16,382.1c.5,4.84,2.42,18.33,3.49,21.65-2.1,4.08-6,4.15-7.83,2.22S152,387.29,152,387.29Z" style="fill:#ff8b7b"></path><path d="M139,326.74c-5.75-34.41-20.94-49.35-17.43-68.43l33.06-.28s5.16,48.5,5.6,71.23,3.33,59.79,3.33,59.79l-10,4.51S138.46,353.35,139,326.74Z" style="fill:#263238"></path><path d="M152.84,397.74c2.27,0,10.33-2.2,11.64-3.18s-.51-6.68-.51-6.68-11.44,1-12.47,1.88S152.84,397.74,152.84,397.74Z" style="fill:#263238"></path><path d="M125.93,284.4c3.83,10,9.06,21.73,12.28,37.91,8.5-23.56,2.72-58.57,2.72-58.57Z" style="opacity:0.6000000000000001"></path><path d="M112.92,385c-.64,4.91-3.59,18.82-3.36,22.5-2.89,3-5.85,3-7.11.28s-.16-22.23-.16-22.23Z" style="fill:#ff8b7b"></path><path d="M109,331c2.95-35.91-.41-55.89.76-72.78l32.14-.22c.45,6.39,2,32.38-11,72.6-7.51,23.17-17.68,62.86-17.68,62.86l-11.63-3.09S101.9,359,109,331Z" style="fill:#263238"></path><path d="M101.1,396.67c2.14.84,9.79,1.78,11.41,1.37s2.11-6.24,2.11-6.24-12.26-3.94-13.44-3.2S101.1,396.67,101.1,396.67Z" style="fill:#263238"></path><path d="M154.86,258a39.86,39.86,0,0,0,0-8.28c0-.86-40.2-2.51-43.54-2.38-4.19.16-.63,19.29,2.66,25.79C143.12,275.07,154,263.06,154.86,258Z" style="fill:#263238"></path><path d="M188.43,202.1l8.29-1.63-4.67-9s-7.32,2.39-6.68,6.49Z" style="fill:#ff8b7b"></path><path d="M201.66,193.22l-2.16-2.88a3,3,0,0,0-3.7-.83l-3.75,2,4.67,9,4.32-3.12A2.92,2.92,0,0,0,201.66,193.22Z" style="fill:#ff8b7b"></path><path d="M193,199.91a11.27,11.27,0,0,0-5.81-3.36l-1.82-.41c-1-.22-1.18,0-1.29.24l-.46.7-.94,1.41c-.63.94-1.26,1.88-1.91,2.79-1.26,1.86-2.58,3.65-3.91,5.36a40.62,40.62,0,0,1-4.06,4.59l-.11.1c-.46-.49-.91-1-1.35-1.54-1.41-1.73-2.78-3.59-4.08-5.52s-2.53-4-3.71-6c-.6-1-1.17-2.07-1.73-3.11l-.81-1.57c-.25-.5-.54-1.09-.72-1.49a1.92,1.92,0,0,1-.12-.25,7.54,7.54,0,0,0-13.47,6.8h0c.38.75.68,1.3,1,1.93l1,1.79c.68,1.19,1.38,2.36,2.1,3.52,1.45,2.32,3,4.57,4.66,6.79a69.31,69.31,0,0,0,5.42,6.47,49,49,0,0,0,6.68,5.94l.32.23a6.3,6.3,0,0,0,5.42,1,15.49,15.49,0,0,0,5.43-2.84,27.4,27.4,0,0,0,3.37-3.18,51.81,51.81,0,0,0,4.86-6.44c1.4-2.17,2.62-4.37,3.77-6.59.56-1.12,1.1-2.23,1.61-3.37l.75-1.71.37-.87C193.65,201,193.7,200.66,193,199.91Zm-23,13.26h.07C170,213.22,170,213.21,170.05,213.17Z" style="fill:#407BFF"></path><path d="M162.54,204.34l-5.26-5-5.17,2.71-1,4.19c1.36,2.17,2.82,4.28,4.37,6.36a69.31,69.31,0,0,0,5.42,6.47,49,49,0,0,0,6.68,5.94C162.17,219.91,162.54,204.34,162.54,204.34Z" style="opacity:0.2"></path><path d="M146.53,161.35s.89,5,2.59,7.29a.73.73,0,0,1-.73,1.15,3,3,0,0,1-1.86-1.78,15.66,15.66,0,0,0,1.84,4.27,1.94,1.94,0,0,1,0,1.9.83.83,0,0,1-1.58-.11,3.6,3.6,0,0,0-1.33-2.13C143.57,170.57,146.53,161.35,146.53,161.35Z" style="fill:#263238"></path><path d="M118.56,183.74a141.7,141.7,0,0,1,29.37-.19,16.33,16.33,0,0,1,14.61,16.29c0,15-4,19.85-6.48,42.92,2.07,2.7.54,6.58-1.2,7-14.61,3.47-36.35-.68-43.54-2.38-3.17-.75-1.34-5-1.34-5,0-7.79,1.55-7.17,1.13-16.8-1.3-9.51-.29-16.67-2.15-29.3A11.05,11.05,0,0,1,118.56,183.74Z" style="fill:#407BFF"></path><path d="M135.35,189.36s8.88,1.18,12.12-1L144,195.91A21.53,21.53,0,0,0,135.35,189.36Z" style="fill:#407BFF"></path><path d="M135.35,189.36s8.88,1.18,12.12-1L144,195.91A21.53,21.53,0,0,0,135.35,189.36Z" style="fill:#fff;opacity:0.5"></path><path d="M144.45,183.24a150.1,150.1,0,0,0-20.23,0,14,14,0,0,0,11.08,9.43s1.81-5.4,7.25-1.16c0,0,3.28-5.25,6.18-.07C148.73,191.41,151.89,187.68,144.45,183.24Z" style="fill:#407BFF"></path><path d="M144.45,183.24a150.1,150.1,0,0,0-20.23,0,14,14,0,0,0,11.08,9.43s1.81-5.4,7.25-1.16c0,0,3.28-5.25,6.18-.07C148.73,191.41,151.89,187.68,144.45,183.24Z" style="fill:#fff;opacity:0.8"></path><path d="M129.78,166.36a39.55,39.55,0,0,1-3.26,16.77,1,1,0,0,0,.25,1.18,20.78,20.78,0,0,0,13.93,5c6.2.09,5.84-1.85,4.38-4a2.59,2.59,0,0,0-.82-.76c-4.24-2.52-4.39-5.89-3.21-7.92Z" style="fill:#ff8b7b"></path><path d="M129.78,166.36l11.27,10.28a4.79,4.79,0,0,0-.23,4.31,9.43,9.43,0,0,1-6.49-2.33c-2.91-2.47-3.9-5.39-4.62-9.5C129.76,168.25,129.78,167.33,129.78,166.36Z" style="opacity:0.2"></path><path d="M126.41,161.05c.5,7.57-.57,8.79,3.28,12.63,5.79,5.77,15.21,6.87,16.54-.81,1.2-6.91,1.87-19.43-5.57-22.34A10.46,10.46,0,0,0,126.41,161.05Z" style="fill:#ff8b7b"></path><path d="M137.72,162.25c0,.65.32.7.75.68s.81-.11.78-.76-.39-1.15-.81-1.13S137.69,161.61,137.72,162.25Z" style="fill:#263238"></path><path d="M143.94,162.25c0,.65.32.7.75.68s.81-.11.78-.76-.39-1.15-.81-1.13S143.91,161.61,143.94,162.25Z" style="fill:#263238"></path><path d="M142.26,162a17.73,17.73,0,0,0,2.29,4.27,2.87,2.87,0,0,1-2.38.42Z" style="fill:#ff5652"></path><path d="M136.7,159.4a.44.44,0,0,1-.12-.15.38.38,0,0,1,.19-.5,3.8,3.8,0,0,1,3.48.05.38.38,0,0,1,.12.52.39.39,0,0,1-.52.13h0a3,3,0,0,0-2.76,0A.39.39,0,0,1,136.7,159.4Z" style="fill:#263238"></path><path d="M146.76,159.37a.39.39,0,0,1-.35,0,3,3,0,0,0-2.74.1.38.38,0,0,1-.41-.64,3.72,3.72,0,0,1,3.45-.16.39.39,0,0,1,.2.5A.5.5,0,0,1,146.76,159.37Z" style="fill:#263238"></path><path d="M144.42,168.72a34.51,34.51,0,0,0-6.7-.14,3.93,3.93,0,0,0,4.28,2.5A2.3,2.3,0,0,0,144.42,168.72Z" style="fill:#263238"></path><path d="M140.79,170a4.58,4.58,0,0,1,2.78.61,2.77,2.77,0,0,1-1.56.51,4.53,4.53,0,0,1-2.77-.61A2.68,2.68,0,0,1,140.79,170Z" style="fill:#a02724"></path><path d="M144.19,168.68a1,1,0,0,1-.74.77,26.13,26.13,0,0,1-4.37-.2,1.38,1.38,0,0,1-1.15-.68A42,42,0,0,1,144.19,168.68Z" style="fill:#fff"></path><path d="M126.57,164.86s4.84,2,3.94-3.3,4.64-.3,5.69-6.38c0,0,4,.83,4.23-1.91,0,0,1.27,1.63-.25,2.14a2,2,0,0,0-1.12,1.52.7.7,0,0,0,1.15.7,3.48,3.48,0,0,1,2.28-1.07c1.91,0,.58-3.52.58-3.52s1.61.46,2.91,3.92c0,0,2.75-7.69-4-8.58,0,0-7.82-6.31-14.46,0s-6.92,10.55-6.92,10.55.28,5-2.08,6c-1.27.55-.75,1.92,0,3.07a.56.56,0,0,0,1-.35c0-.63.09-1.19.56-1.27,1.18-.21,1.8-2,1.8-2a4.57,4.57,0,0,1-.34,3.65c-1,2.25,1.69,2.08,2.08,4.5a4,4,0,0,0,.64,1.61.69.69,0,0,0,1.25-.53,1.7,1.7,0,0,1,.08-1.14,10.05,10.05,0,0,1,2.24,2.77.81.81,0,0,0,1.53-.26,8.09,8.09,0,0,0-2.31-6.44Z" style="fill:#263238"></path><path d="M123,166.12a6.92,6.92,0,0,0,3.49,3.69c2,.87,3.15-1.12,2.67-3.39-.43-2-2-4.95-4.08-4.85S122.12,164.05,123,166.12Z" style="fill:#ff8b7b"></path><path d="M144.63,236.8l.37-3.58a2.93,2.93,0,0,0-2.68-3.21l-5.31-.43-5.19,1.9-.21-.73c-.28-1-.62-1.05-1-1.06l-1-.1-2-.23c-1.33-.16-2.66-.32-4-.51-2.63-.33-5.23-.79-7.72-1.27a42.74,42.74,0,0,1-4.85-1.26c.25,7.45-.75,8.37-1.07,13,1.33.26,2.63.46,3.93.63a81.53,81.53,0,0,0,8.87.59c1.46,0,2.91,0,4.36,0l2.18-.1,1.09-.06a.86.86,0,0,0,.89-.52,15.33,15.33,0,0,0,6.29-.09l4.22-.26A2.92,2.92,0,0,0,144.63,236.8Z" style="opacity:0.2"></path><path d="M121.08,199.39l-1.9-2.6-2.4,1.4-4.65,6.9-2,3.07c.3,6.17.19,11.28,1,17.33l2.09.3C109.2,223.78,121.08,199.39,121.08,199.39Z" style="opacity:0.2"></path><path d="M164.22,236.92H137.11a1.76,1.76,0,0,1-1.72-2.15l3.79-16.62a1.8,1.8,0,0,1,1.75-1.39H168a1.76,1.76,0,0,1,1.72,2.15L166,235.53A1.79,1.79,0,0,1,164.22,236.92Z" style="fill:#263238"></path><path d="M165,237.3H137.88a1.76,1.76,0,0,1-1.72-2.15L140,218.53a1.79,1.79,0,0,1,1.74-1.39h27.12a1.75,1.75,0,0,1,1.71,2.15l-3.78,16.62A1.8,1.8,0,0,1,165,237.3Z" style="fill:#263238"></path><path d="M165,237.3H137.88a1.76,1.76,0,0,1-1.72-2.15L140,218.53a1.79,1.79,0,0,1,1.74-1.39h27.12a1.75,1.75,0,0,1,1.71,2.15l-3.78,16.62A1.8,1.8,0,0,1,165,237.3Z" style="fill:#fff;opacity:0.5"></path><path d="M130.2,231.12l7.94-2.9.67,10.11s-7.51,1.75-9.08-2.08Z" style="fill:#ff8b7b"></path><path d="M146.12,231.86l-.36,3.59a2.93,2.93,0,0,1-2.73,2.62l-4.22.26-.67-10.11,5.31.43A2.92,2.92,0,0,1,146.12,231.86Z" style="fill:#ff8b7b"></path><path d="M133.14,230.85l-.4-1.46c-.29-1-.63-1-1-1l-1-.1-2-.24c-1.33-.15-2.65-.32-4-.51-2.63-.32-5.22-.78-7.71-1.27a33.08,33.08,0,0,1-6.66-1.95,6.32,6.32,0,0,1-.69-.35,11.93,11.93,0,0,1,.39-2.09,30.14,30.14,0,0,1,1-3.19c.87-2.23,1.93-4.56,3.1-6.87s2.47-4.62,3.79-6.92c.66-1.15,1.34-2.29,2-3.42s1.42-2.3,2.08-3.3l0-.06a1.4,1.4,0,0,1,.1-.16A7.54,7.54,0,0,0,109.52,190c-.84,1.35-1.54,2.55-2.27,3.83s-1.43,2.53-2.13,3.82c-1.38,2.56-2.67,5.18-3.9,7.89A75.87,75.87,0,0,0,97.88,214a44.07,44.07,0,0,0-1.26,4.83,23.21,23.21,0,0,0-.47,5.93,13.35,13.35,0,0,0,.82,4l.23.57c.1.23.21.45.32.67a11.21,11.21,0,0,0,.73,1.2,12.42,12.42,0,0,0,1.61,1.83,15.21,15.21,0,0,0,3,2.13,21.42,21.42,0,0,0,2.72,1.2,43.79,43.79,0,0,0,9.5,2.13,84,84,0,0,0,8.86.6c1.46,0,2.91,0,4.37-.05l2.17-.09,1.1-.07c.37,0,.72,0,1.13-1A11,11,0,0,0,133.14,230.85Z" style="fill:#407BFF"></path><path d="M165.83,403.67l-8.47,1.13a.59.59,0,0,0-.53.59l-.07,6.83a1.22,1.22,0,0,0,1.38,1.18c3-.45,4.35-.81,8.07-1.31,2.29-.3,8.9-.94,12.06-1.36s2.92-3.58,1.56-3.68c-6.07-.49-10.47-1.68-12.68-3.09A2,2,0,0,0,165.83,403.67Z" style="fill:#263238"></path><path d="M166.42,404.65a.17.17,0,0,1-.16-.13.18.18,0,0,1,.07-.19c.32-.22,3.12-2.16,4.11-1.78a.58.58,0,0,1,.36.44,1,1,0,0,1-.2.91,2.86,2.86,0,0,1-1.77.71A12.32,12.32,0,0,1,166.42,404.65Zm.56-.33c1.71.06,2.94-.18,3.34-.65a.64.64,0,0,0,.13-.6.21.21,0,0,0-.14-.18.74.74,0,0,0-.34,0A9.74,9.74,0,0,0,167,404.32Z" style="fill:#407BFF"></path><path d="M166.35,404.63a.17.17,0,0,1-.09-.15c0-.08-.11-2.13.74-3.05a1.27,1.27,0,0,1,.94-.44c.5,0,.68.22.74.41.25.84-1.31,2.7-2.15,3.23l-.07,0A.15.15,0,0,1,166.35,404.63Zm.91-3a4.21,4.21,0,0,0-.65,2.46c.84-.68,1.88-2.12,1.73-2.62,0,0-.06-.17-.39-.16h-.1A1,1,0,0,0,167.26,401.67Z" style="fill:#407BFF"></path><path d="M110,404.77l-8.54,0a.61.61,0,0,0-.61.52l-1,6.76a1.22,1.22,0,0,0,1.21,1.35c3,0,4.42-.22,8.17-.21,2.31,0,9,.26,12.14.26s3.37-3.15,2-3.43c-6-1.3-10.15-3.07-12.16-4.76A1.94,1.94,0,0,0,110,404.77Z" style="fill:#263238"></path><path d="M110.42,405.83a.19.19,0,0,1-.14-.15.2.2,0,0,1,.09-.19c.35-.18,3.38-1.72,4.31-1.21a.57.57,0,0,1,.3.48,1,1,0,0,1-.32.88,2.87,2.87,0,0,1-1.85.46A12.9,12.9,0,0,1,110.42,405.83Zm.6-.26c1.68.28,2.94.21,3.4-.2a.65.65,0,0,0,.21-.58.23.23,0,0,0-.12-.19.69.69,0,0,0-.34-.07A9.76,9.76,0,0,0,111,405.57Z" style="fill:#407BFF"></path><path d="M110.35,405.8a.17.17,0,0,1-.07-.16c0-.09.18-2.14,1.14-2.93a1.31,1.31,0,0,1,1-.31c.5.05.64.31.67.51.14.86-1.65,2.5-2.56,2.91h-.07A.2.2,0,0,1,110.35,405.8Zm1.3-2.81a4.13,4.13,0,0,0-1,2.34c.92-.56,2.14-1.85,2.06-2.36,0-.05,0-.18-.36-.21h-.11A.93.93,0,0,0,111.65,403Z" style="fill:#407BFF"></path></g></svg>
