<?xml version="1.0" standalone="no"?>
<!DOCTYPE svg PUBLIC "-//W3C//DTD SVG 20010904//EN"
 "http://www.w3.org/TR/2001/REC-SVG-20010904/DTD/svg10.dtd">
<svg version="1.0" xmlns="http://www.w3.org/2000/svg"
 width="154.000000pt" height="127.000000pt" viewBox="0 0 154.000000 127.000000"
 preserveAspectRatio="xMidYMid meet">
<metadata>
Created by potrace 1.16, written by Peter Selinger 2001-2019
</metadata>
<g transform="translate(0.000000,127.000000) scale(0.100000,-0.100000)"
fill="#000000" stroke="none">
<path d="M293 1139 c-65 -25 -142 -98 -179 -169 l-29 -55 0 -290 0 -290 29
-59 c98 -201 342 -266 511 -138 51 39 257 309 295 387 24 49 26 130 6 180 -17
40 -26 43 -50 16 -15 -16 -16 -25 -6 -58 22 -73 0 -119 -172 -348 -105 -139
-148 -168 -255 -174 -92 -4 -145 14 -203 71 -23 22 -54 65 -68 96 -26 56 -27
62 -30 294 -3 193 -1 248 12 291 47 161 215 245 371 186 45 -17 74 -37 118
-83 l57 -60 22 21 21 21 -32 41 c-44 55 -98 96 -160 120 -69 28 -186 28 -258
0z"/>
<path d="M975 1140 c-75 -30 -118 -71 -228 -219 -150 -203 -181 -273 -158
-357 19 -67 27 -73 57 -43 23 23 25 29 14 49 -20 38 -6 105 35 168 79 120 204
281 239 307 84 64 187 73 284 24 72 -35 114 -83 142 -157 18 -47 20 -78 20
-300 l0 -247 -29 -60 c-52 -108 -136 -164 -247 -165 -92 0 -145 22 -215 93
-50 50 -63 59 -77 51 -29 -19 -24 -37 23 -91 31 -35 68 -63 113 -85 60 -30 75
-33 152 -33 108 0 169 25 238 99 98 103 112 160 112 444 0 150 -4 225 -16 272
-25 106 -91 192 -187 242 -61 31 -202 36 -272 8z"/>
<path d="M1015 1034 c-53 -19 -91 -57 -191 -189 -86 -114 -92 -135 -36 -135
18 0 42 17 83 59 31 32 67 62 79 66 26 8 76 -11 87 -33 4 -10 10 -129 13 -266
4 -219 7 -250 22 -260 13 -8 22 -6 37 8 20 18 21 30 21 193 0 109 4 173 10
173 6 0 10 -73 10 -198 0 -215 5 -237 51 -230 l24 3 3 213 c2 179 5 212 17
212 13 0 15 -26 15 -169 0 -135 3 -171 15 -181 20 -16 54 -3 61 24 3 13 4 138
2 277 -3 240 -4 257 -26 304 -30 65 -56 93 -117 121 -57 27 -120 30 -180 8z"/>
<path d="M302 998 c-9 -9 -12 -70 -12 -215 0 -129 -4 -203 -10 -203 -11 0 -12
16 -11 165 0 145 -8 189 -38 193 -13 2 -28 -2 -32 -10 -5 -7 -9 -131 -9 -274
0 -283 5 -314 56 -381 14 -18 48 -45 76 -59 44 -22 61 -25 119 -22 56 3 76 9
111 34 42 29 226 257 227 281 1 19 -44 26 -71 13 -12 -7 -46 -37 -74 -66 -58
-62 -90 -69 -129 -29 l-25 24 0 239 c0 223 -1 240 -19 256 -15 14 -24 15 -40
7 -19 -11 -21 -21 -23 -188 -2 -130 -6 -177 -15 -181 -10 -3 -13 42 -13 200 0
209 -3 228 -40 228 -9 0 -21 -5 -28 -12z"/>
</g>
</svg>
